<?xml version="1.0" encoding="iso-8859-1"?>
<!-- Uploaded to: SVG Repo, www.svgrepo.com, Generator: SVG Repo Mixer Tools -->
<svg fill="#000000" height="800px" width="800px" version="1.1" id="Layer_1" xmlns="http://www.w3.org/2000/svg" xmlns:xlink="http://www.w3.org/1999/xlink" 
	 viewBox="0 0 297 297" xml:space="preserve">
<g>
	<g>
		<g>
			<path d="M221.943,112.482c12.089,0,23.956-16.723,23.956-33.763c0-14.552-9.403-23.956-23.956-23.956
				s-23.956,9.403-23.956,23.956C197.987,95.758,209.853,112.482,221.943,112.482z"/>
			<path d="M213.585,121.977c-0.306,3.75-1.375,8.216-4.323,11.813c0.142,6.871,5.776,12.417,12.68,12.417
				s12.539-5.547,12.68-12.417c-2.947-3.597-4.016-8.063-4.322-11.813c-2.661,0.918-5.454,1.431-8.359,1.431
				C219.039,123.409,216.246,122.896,213.585,121.977z"/>
			<path d="M272.212,160.547c-1.346-8.985-8.728-16.641-18.368-19.05l-8.996-2.249c-2.564,10.263-11.859,17.888-22.905,17.888
				c-11.046,0-20.341-7.626-22.905-17.888l-8.996,2.249c-9.639,2.41-17.021,10.065-18.368,19.05
				c-0.462,3.084-1.017,7.925-1.58,13.33l103.698-0.001C273.229,168.471,272.674,163.63,272.212,160.547z"/>
			<path d="M124.242,160.547c-1.346-8.985-8.728-16.641-18.368-19.05l-8.996-2.249c-2.564,10.263-11.859,17.888-22.905,17.888
				c-11.046,0-20.34-7.625-22.905-17.888l-8.995,2.249c-9.64,2.41-17.022,10.065-18.368,19.05c-0.462,3.084-1.018,7.925-1.581,13.33
				l103.698-0.001C125.26,168.471,124.705,163.63,124.242,160.547z"/>
			<path d="M65.616,121.977c-0.306,3.75-1.375,8.216-4.323,11.813c0.142,6.871,5.776,12.417,12.68,12.417s12.539-5.547,12.68-12.417
				c-2.947-3.598-4.016-8.063-4.322-11.813c-2.661,0.918-5.454,1.431-8.359,1.431C71.069,123.409,68.276,122.896,65.616,121.977z"/>
			<path d="M73.974,112.482c12.089,0,23.956-16.723,23.956-33.763c0-14.552-9.403-23.956-23.956-23.956s-23.956,9.404-23.956,23.956
				C50.018,95.758,61.884,112.482,73.974,112.482z"/>
			<path d="M291.537,231.31h-13.224l3.899-37.787c0.233-2.255-0.476-4.425-1.994-6.109c-1.52-1.684-3.606-2.611-5.874-2.611
				l-104.832,0.001c-2.265,0-4.349,0.925-5.867,2.605c-1.519,1.68-2.23,3.846-2.003,6.1l3.818,37.802h-35.116l3.899-37.787
				c0.233-2.255-0.475-4.425-1.994-6.109c-1.52-1.684-3.606-2.611-5.874-2.611l-104.832,0.001c-2.265,0-4.348,0.925-5.867,2.605
				c-1.519,1.679-2.23,3.845-2.002,6.099l3.818,37.802H5.463c-3.017,0-5.463,2.446-5.463,5.463c0,3.017,2.446,5.463,5.463,5.463
				h286.074c3.017,0,5.463-2.446,5.463-5.463C297,233.755,294.554,231.31,291.537,231.31z"/>
		</g>
	</g>
</g>
</svg>